<svg height="512pt" viewBox="0 0 512 512" width="512pt" xmlns="http://www.w3.org/2000/svg"><path d="m512 256c0 141.386719-114.613281 256-256 256s-256-114.613281-256-256 114.613281-256 256-256 256 114.613281 256 256zm0 0" fill="#ff432e"/><path d="m511.230469 275.9375-172.175781-172.179688-236.054688 304.484376 97.765625 97.761718c17.789063 3.914063 36.265625 5.996094 55.234375 5.996094 134.675781 0 245.058594-103.996094 255.230469-236.0625zm0 0" fill="#db0404"/><path d="m158.242188 103.757812-55.242188 55.242188v249.242188h236.054688v-304.484376zm0 0" fill="#fff"/><path d="m221.882812 103.757812h117.171876v304.484376h-117.171876zm0 0" fill="#e9edf5"/><path d="m158.242188 159v-55.242188l-55.242188 55.242188zm0 0" fill="#d7d7d7"/><path d="m126.664062 187.667969h188.726563v18.667969h-188.726563zm0 0" fill="#d7d7d7"/><path d="m221.882812 187.667969h93.507813v18.667969h-93.507813zm0 0" fill="#cdcdcd"/><g fill="#d7d7d7"><path d="m126.664062 228.332031h188.726563v18.667969h-188.726563zm0 0"/><path d="m126.664062 269h188.726563v18.667969h-188.726563zm0 0"/><path d="m126.664062 309.667969h188.726563v18.667969h-188.726563zm0 0"/></g><path d="m201.410156 223.621094h229.96875v139.375h-229.96875zm0 0" fill="#ffe000"/><path d="m316.394531 223.621094h114.984375v139.375h-114.984375zm0 0" fill="#ffc200"/><path d="m431.378906 362.996094-114.984375-75.257813-114.984375 75.257813zm0 0" fill="#ffee6e"/><path d="m316.394531 287.738281v75.257813h114.984375zm0 0" fill="#ffe45c"/><path d="m431.378906 223.621094-114.984375 101.746094-114.984375-101.746094zm0 0" fill="#fdba12"/><path d="m316.394531 223.621094v101.746094l114.984375-101.746094zm0 0" fill="#ffa300"/></svg>