<svg id="Layer_1" enable-background="new 0 0 512 512" height="512" viewBox="0 0 512 512" width="512" xmlns="http://www.w3.org/2000/svg"><g><g id="XMLID_22_"><g><g id="XMLID_1117_"><g id="XMLID_1118_"><g id="XMLID_1119_"><g id="XMLID_1136_"><g id="XMLID_1145_"><g id="XMLID_1146_"><g id="XMLID_1147_"><g id="XMLID_1148_"><g id="XMLID_1149_"><g id="XMLID_1150_"><g id="XMLID_1151_"><g id="XMLID_1152_"><g id="XMLID_1153_"><g id="XMLID_1154_"><circle cx="256" cy="256" fill="#fedd55" r="256"/></g></g></g></g></g></g></g></g></g></g></g></g></g></g></g></g><path d="m509.678 290.504-57.263-57.263-53.704-13.702-108.572-108.527-221.979 154.472 34.577 34.695-5.876 14.874 194.504 194.504c113.372-15.669 203.02-105.562 218.313-219.053z" fill="#fcc63d"/><g><path d="m414.325 215.947h-150.374c-27.944 0-50.807 22.863-50.807 50.807v82.877c0 27.944 22.863 50.807 50.807 50.807h87.409l67.778 36.845v-37.08c25.708-2.446 45.994-24.251 45.994-50.571v-82.877c0-27.945-22.863-50.808-50.807-50.808z" fill="#ff807d"/><path d="m465.13 266.75v82.88c0 26.32-20.28 48.13-45.99 50.57v37.08l-67.78-36.84h-12.23v-184.49h75.19c27.95 0 50.81 22.86 50.81 50.8z" fill="#fc3e53"/><path d="m367.533 358.772 14.034-5.296-35.363-93.704-13.835.016-35.671 93.659 14.018 5.339 8.591-22.557h39.719zm-42.515-37.544 14.238-37.382 14.108 37.382z" fill="#fff"/><path d="m346.2 259.77-7.07.01v24.41l.13-.34 14.1 37.38h-14.23v15h19.89l8.51 22.54 14.04-5.29z" fill="#eae1dc"/><path d="m252.048 93.718h-150.373c-27.944 0-50.807 22.863-50.807 50.807v82.877c0 26.32 20.286 48.126 45.994 50.571v37.08l67.778-36.845h87.409c27.944 0 50.807-22.863 50.807-50.807v-82.877c0-27.943-22.864-50.806-50.808-50.806z" fill="#238cf8"/><path d="m302.86 144.52v82.88c0 27.95-22.87 50.81-50.81 50.81h-75.35v-184.49h75.35c27.94 0 50.81 22.86 50.81 50.8z" fill="#0768dd"/><path d="m229.126 225.125-12.63-12.629c5.783-8.043 9.203-17.893 9.203-28.533 0-27.018-21.98-48.998-48.997-48.998s-48.998 21.98-48.998 48.998c0 27.017 21.98 48.997 48.998 48.997 10.976 0 21.121-3.628 29.299-9.748l12.519 12.519zm-52.424-7.165c-18.746 0-33.998-15.251-33.998-33.997s15.252-33.998 33.998-33.998 33.997 15.251 33.997 33.998c0 6.493-1.832 12.566-5.004 17.732l-13.727-13.727-10.607 10.606 13.87 13.87c-5.334 3.483-11.697 5.516-18.529 5.516z" fill="#fff"/><path d="m216.5 212.5c5.78-8.05 9.2-17.9 9.2-28.54 0-27.01-21.98-48.99-49-48.99v15c18.75 0 34 15.25 34 33.99 0 6.5-1.83 12.57-5 17.74l-13.73-13.73-10.61 10.6 13.87 13.87c-5.33 3.49-11.7 5.52-18.53 5.52v15c10.98 0 21.12-3.63 29.3-9.75l12.52 12.52 10.61-10.6z" fill="#eae1dc"/></g></g></svg>